<?xml version="1.0"?><svg xmlns="http://www.w3.org/2000/svg" width="30px" height="30px" fill="none" viewBox="0 0 32 32"><path fill="#F7DF1E" d="M7.88 8h16v16h-16zm11.844 7.28c-.616.062-1.227.37-1.565.902-.304.46-.36 1.045-.254 1.577.08.428.316.82.646 1.1.493.434 1.124.648 1.713.914.232.11.477.214.665.396.209.198.262.537.134.793-.107.21-.323.34-.544.399-.331.085-.69.066-1.01-.052-.386-.143-.672-.464-.88-.808q-.612.354-1.223.709c.135.262.309.506.52.712.425.422.995.681 1.583.774a3.8 3.8 0 0 0 1.588-.074c.498-.14.97-.433 1.245-.878.312-.491.351-1.11.235-1.668a1.9 1.9 0 0 0-.656-1.055c-.48-.405-1.072-.64-1.642-.886-.252-.113-.515-.219-.725-.402-.285-.246-.294-.752 0-.994.23-.192.56-.198.836-.12.294.085.49.341.635.597l1.17-.751c-.216-.382-.515-.728-.907-.935-.477-.252-1.035-.302-1.564-.25m-4.634.066q.001 2.578-.001 5.155c-.005.28-.052.61-.301.78-.23.142-.523.15-.777.082-.344-.105-.527-.441-.695-.732l-1.223.74c.17.36.42.686.744.92.424.315.958.45 1.48.452.527.005 1.077-.101 1.505-.424.369-.271.602-.694.698-1.136.094-.398.07-.81.073-1.215v-4.622z"></path><path fill="#000" d="M19.724 15.28c.529-.052 1.087-.002 1.564.25.392.207.691.553.908.935l-1.17.751c-.145-.256-.342-.512-.636-.598-.276-.077-.606-.071-.836.12-.294.243-.285.749 0 .994.21.184.473.29.725.403.57.246 1.162.481 1.642.886.325.27.567.64.656 1.055.116.558.077 1.176-.235 1.668-.276.445-.747.738-1.245.878a3.8 3.8 0 0 1-1.588.074c-.588-.093-1.158-.352-1.583-.774a2.8 2.8 0 0 1-.52-.712q.61-.355 1.223-.71c.208.345.494.666.88.809.32.117.679.137 1.01.052.22-.06.437-.19.544-.4a.69.69 0 0 0-.134-.792c-.188-.182-.433-.286-.665-.396-.59-.266-1.22-.48-1.713-.913a1.93 1.93 0 0 1-.646-1.101c-.106-.532-.05-1.116.254-1.578.338-.531.949-.84 1.565-.901M15.09 15.346h1.503v4.622c-.003.405.021.817-.073 1.215-.096.442-.33.864-.698 1.136-.428.323-.978.43-1.505.424-.522-.002-1.056-.137-1.48-.451a2.4 2.4 0 0 1-.744-.921l1.223-.74c.168.29.351.627.694.732.255.068.549.06.778-.081.25-.17.296-.5.3-.78q.002-2.58.002-5.156"></path></svg>