<svg xmlns="http://www.w3.org/2000/svg" width="204" height="34" fill="none" viewBox="0 0 204 34"><g clip-path="url(#a)"><path fill="#000000" fill-rule="evenodd" d="M119.759 20.8078L123.737 19.627C123.998 21.8747 125.757 23.3779 127.744 23.3779C129.56 23.3779 130.741 22.5149 130.741 21.244C130.741 19.6542 128.937 19.1208 126.834 18.4994C123.902 17.6325 120.389 16.5942 120.389 12.277C120.389 8.96232 123.562 6.59607 127.512 6.59607C131.462 6.59607 134.549 8.67306 135.241 11.7601L131.177 13.4625C130.774 11.6463 129.418 10.4655 127.517 10.4655C125.933 10.4655 124.951 11.1294 124.951 12.2533C124.951 13.4819 126.481 13.861 128.366 14.328C131.391 15.0777 135.331 16.0541 135.331 21.135C135.331 24.7958 132.216 27.2474 127.573 27.2474C123.538 27.2474 120.133 24.5065 119.759 20.8173V20.8078ZM82.2544 27.0957V25.6607C83.0051 26.6953 84.4771 27.3281 86.1191 27.3281C90.3963 27.3281 92.9949 24.3833 92.9949 19.8168C92.9949 15.2502 90.3963 12.3055 86.1807 12.3055C84.4499 12.3055 83.0652 12.9409 82.2544 13.9225V6.64355H78.0103V27.0957H82.2544ZM88.841 19.8168C88.841 17.479 87.4848 15.9189 85.4315 15.9189C83.3782 15.9189 81.9936 17.479 81.9936 19.8168C81.9936 22.1546 83.3498 23.7147 85.4315 23.7147C87.5132 23.7147 88.841 22.1546 88.841 19.8168ZM55.9743 6.87585H47.6V27.0957H52.1618V19.5275H55.9743C60.1662 19.5275 62.8502 17.0427 62.8502 13.2017C62.8502 9.36065 60.1615 6.87585 55.9743 6.87585ZM58.2884 13.2017C58.2884 14.7049 57.2499 15.6295 55.5143 15.6295V15.6248H52.1618V10.7738H55.5143C57.2499 10.7738 58.2884 11.6984 58.2884 13.2017ZM72.7846 27.0957H77.0003V27.091V12.5331H72.7846V18.9158C72.7846 21.9222 71.7129 23.5677 69.6929 23.5677C68.1897 23.5677 67.2081 22.5007 67.2081 20.9122V12.5378H62.964V22.0408C62.964 25.2463 65.1311 27.3281 68.3367 27.3281C70.2998 27.3281 71.8884 26.4318 72.7846 25.161V27.0957ZM98.0546 6.64355H93.8105V27.0957H98.0546V6.64355ZM104.006 6.64355V10.7169H99.5294V6.64355H104.006ZM99.6147 12.5378H103.859V27.0957H99.6147V12.5378ZM112.148 12.3055C107.761 12.3055 104.698 15.3973 104.698 19.8168C104.698 24.2363 107.757 27.3281 112.148 27.3281C115.989 27.3281 118.673 25.4218 119.194 22.3585L115.064 21.5191C114.775 22.8469 113.822 23.7147 112.319 23.7147C110.355 23.7147 109.056 22.183 109.056 19.8168C109.056 17.4505 110.327 15.9189 112.319 15.9189C113.822 15.9189 114.889 16.8388 115.121 18.2851L119.223 17.4742C118.763 14.2687 116.046 12.3055 112.148 12.3055ZM146.295 25.8817V32.2549L146.29 32.2597H150.529V12.4761H146.29V13.9177C145.484 12.9077 144.071 12.2438 142.226 12.2438C138.186 12.2438 135.592 15.1838 135.592 19.7408C135.592 24.2979 138.418 27.2379 142.572 27.2379C144.161 27.2379 145.517 26.7448 146.295 25.8817ZM143.122 15.8477C145.199 15.8477 146.556 17.4031 146.556 19.7408C146.556 22.0786 145.171 23.634 143.122 23.634C141.074 23.634 139.718 22.0786 139.718 19.7408C139.718 17.4031 141.045 15.8477 143.122 15.8477ZM165.192 27.0056H160.981V25.0756C160.084 26.3465 158.501 27.238 156.537 27.238C153.337 27.238 151.174 25.161 151.174 21.9601V12.4714H155.414V20.8363C155.414 22.4249 156.395 23.4918 157.894 23.4918C159.914 23.4918 160.981 21.8463 160.981 18.8494V12.4762H165.192V27.0056ZM178.683 27.0056V18.3847V18.3799C178.683 14.2876 175.999 12.2391 172.049 12.2391C168.933 12.2391 166.278 14.0837 165.818 16.9384L169.507 17.6307C169.649 16.2176 170.659 15.383 172.044 15.383C173.599 15.383 174.581 16.2508 174.581 17.6924V17.7777L171.958 18.0385C167.776 18.47 165.671 20.0301 165.671 22.9133C165.671 25.3364 167.662 27.238 170.488 27.238C172.105 27.238 173.751 26.4318 174.585 25.161V27.0056H178.683ZM174.585 20.7462V20.9785C174.557 22.6809 173.428 24.2078 171.527 24.2078C170.346 24.2078 169.711 23.6056 169.711 22.7663C169.711 21.9269 170.431 21.2062 171.873 21.0639L174.585 20.7462ZM187.455 16.1938C185.554 16.1938 183.737 17.6354 183.737 21.7609V27.0103H179.498V12.4761H183.737V14.9846C184.401 13.4293 186.274 12.2438 188.005 12.2438C188.494 12.2438 189.158 12.3291 189.561 12.4761L189.315 16.2972C190.319 14.0272 192.42 12.2438 195.815 12.2438C200.832 12.2438 203.284 16.1369 203.284 19.3662C203.284 19.9448 203.255 20.6371 203.227 20.9548V20.9501H192.79C193.193 22.7378 194.407 23.7194 196.195 23.7194C197.636 23.7194 198.703 23.0555 199.021 21.8463L202.999 22.9132C202.136 25.6541 199.538 27.2379 196.076 27.2379C191.059 27.2379 188.607 23.3448 188.607 19.7408C188.607 18.6507 188.808 17.534 189.227 16.5067C188.744 16.2968 188.087 16.1938 187.455 16.1938ZM195.815 15.3877C197.688 15.3877 198.613 16.4831 198.755 17.9531H192.847C193.25 16.2507 194.288 15.3877 195.815 15.3877Z" clip-rule="evenodd"/><path fill="url(#b)" d="M0 0.284519V33.7202C0 33.8767 0.128033 34.0047 0.284519 34.0047H33.7202C33.8767 34.0047 34.0047 33.8767 34.0047 33.7202V0.284519C34.0047 0.128033 33.8767 0 33.7202 0H0.284519C0.128033 0 0 0.128033 0 0.284519ZM26.8064 26.9724H7.19833C7.10823 26.9724 7.03236 26.8965 7.03236 26.8064V7.03236H26.8064C26.8965 7.03236 26.9724 7.10823 26.9724 7.19833V26.8064C26.9724 26.8965 26.8965 26.9724 26.8064 26.9724Z"/></g><defs><linearGradient id="b" x1="1.067" x2="29.709" y1="31.373" y2="5.539" gradientUnits="userSpaceOnUse"><stop stop-color="#BA4B99"/><stop offset=".66" stop-color="#6852F7"/><stop offset="1" stop-color="#6552FA"/></linearGradient><clipPath id="a"><rect width="203.289" height="34" fill="#fff"/></clipPath></defs></svg>