<svg width="216" height="37" viewBox="0 0 216 37" fill="none" xmlns="http://www.w3.org/2000/svg">
<g clip-path="url(#clip0_1286_25751)">
<path d="M50.6449 7.4347C50.6449 7.3377 50.7248 7.25781 50.8218 7.25781H59.5408C63.9887 7.25781 66.839 9.89405 66.839 13.9768C66.839 18.0595 63.983 20.6958 59.5408 20.6958H55.6663C55.5693 20.6958 55.4895 20.7756 55.4895 20.8726V28.5617C55.4895 28.6587 55.4096 28.7386 55.3126 28.7386H50.819C50.722 28.7386 50.6421 28.6587 50.6421 28.5617V7.4347H50.6478H50.6449ZM59.0501 16.556C60.8903 16.556 61.9973 15.5745 61.9973 13.9825C61.9973 12.3905 60.8903 11.409 59.0501 11.409H55.6663C55.5693 11.409 55.4895 11.4889 55.4895 11.5859V16.3905C55.4895 16.4875 55.5693 16.5674 55.6663 16.5674H59.0501V16.556Z" fill="black"/>
<path d="M81.6863 28.7332H77.5751C77.4724 28.7332 77.3925 28.6533 77.3925 28.5506V26.9956C77.3925 26.8929 77.2669 26.853 77.2042 26.9329C76.4823 27.8259 75.4153 28.522 74.1257 28.8187C70.4395 29.6661 66.9702 26.6904 66.9702 22.9129V13.4578C66.9702 13.3551 67.0501 13.2752 67.1528 13.2752H71.2926C71.3953 13.2752 71.4752 13.3551 71.4752 13.4578V22.1654C71.4752 23.8516 72.5194 24.9871 74.1114 24.9871C76.2627 24.9871 77.3953 23.2381 77.3953 20.0456V13.4521C77.3953 13.3494 77.4752 13.2695 77.5779 13.2695H81.6892C81.7919 13.2695 81.8718 13.3494 81.8718 13.4521V28.5477C81.8661 28.6504 81.7862 28.7303 81.6835 28.7303L81.6863 28.7332Z" fill="black"/>
<path d="M87.4526 27.4608V28.5621C87.4526 28.6591 87.3727 28.739 87.2757 28.739H83.1188C83.0218 28.739 82.9419 28.6591 82.9419 28.5621V7.19544C82.9419 7.09844 83.0218 7.01855 83.1188 7.01855H87.2757C87.3727 7.01855 87.4526 7.09844 87.4526 7.19544V14.5107C87.4526 14.5906 87.5496 14.6305 87.6067 14.5678C88.4826 13.6263 89.8891 13.0243 91.6266 13.0243C96.1031 13.0243 98.8677 16.1541 98.8677 20.9986C98.8677 25.8431 96.1031 28.9729 91.5639 28.9729C89.9233 28.9729 88.4455 28.3766 87.6124 27.3952C87.5553 27.3381 87.4526 27.3723 87.4526 27.4579V27.4608ZM94.4483 21.0071C94.4483 18.525 93.0104 16.8673 90.8306 16.8673C88.6509 16.8673 87.1787 18.525 87.1787 21.0071C87.1787 23.4893 88.6223 25.1469 90.8306 25.1469C93.0104 25.1469 94.4483 23.4893 94.4483 21.0071Z" fill="black"/>
<path d="M99.8834 7.01855H104.08C104.166 7.01855 104.234 7.08703 104.234 7.17262V28.5792C104.234 28.6648 104.166 28.7332 104.08 28.7332H99.8834C99.7978 28.7332 99.7293 28.6648 99.7293 28.5792V7.17262C99.7236 7.08703 99.7921 7.01855 99.8834 7.01855Z" fill="black"/>
<path d="M110.551 7.14409V11.2154C110.551 11.2839 110.494 11.341 110.425 11.341H105.926C105.857 11.341 105.8 11.2839 105.8 11.2154V7.14409C105.8 7.07562 105.857 7.01855 105.926 7.01855H110.425C110.494 7.01855 110.551 7.07562 110.551 7.14409ZM106.017 13.2782H110.271C110.34 13.2782 110.397 13.3352 110.397 13.4037V28.6077C110.397 28.6762 110.34 28.7332 110.271 28.7332H106.017C105.949 28.7332 105.892 28.6762 105.892 28.6077V13.4037C105.892 13.3352 105.949 13.2782 106.017 13.2782Z" fill="black"/>
<path d="M111.284 21.0075C111.284 16.3114 114.534 13.0332 119.196 13.0332C123.284 13.0332 126.143 15.0674 126.688 18.3941C126.699 18.4683 126.654 18.5368 126.579 18.5482L122.48 19.3556C122.405 19.367 122.343 19.3214 122.326 19.2529C122.04 17.7978 120.922 16.8677 119.373 16.8677C117.259 16.8677 115.903 18.4968 115.903 21.0075C115.903 23.5182 117.284 25.1473 119.373 25.1473C120.922 25.1473 121.918 24.2828 122.257 22.9391C122.274 22.8706 122.337 22.8249 122.411 22.842L126.545 23.678C126.619 23.6951 126.665 23.7636 126.654 23.8378C126.046 27.0132 123.219 28.979 119.196 28.979C114.534 28.979 111.284 25.7008 111.284 21.0047V21.0075Z" fill="black"/>
<path d="M127.441 22.009L131.292 20.8621C131.407 20.8278 131.515 20.902 131.538 21.0218C131.9 23.2872 133.718 24.7822 135.763 24.7822C137.695 24.7822 138.95 23.8635 138.95 22.5168C138.95 18.474 127.954 20.8649 127.954 12.9933C127.954 9.47261 131.327 6.96191 135.521 6.96191C139.715 6.96191 142.882 9.09601 143.689 12.2772C143.712 12.3685 143.66 12.4712 143.575 12.5054L139.618 14.1631C139.509 14.2087 139.389 14.1459 139.361 14.0318C138.873 12.2258 137.469 11.0618 135.526 11.0618C133.84 11.0618 132.805 11.7665 132.805 12.9591C132.805 16.3599 143.829 13.6352 143.829 22.3913C143.829 26.2772 140.522 28.8877 135.589 28.8877C131.364 28.8877 127.792 26.0603 127.304 22.2258C127.287 22.1288 127.344 22.0375 127.435 22.009H127.441Z" fill="black"/>
<path d="M155.469 34.0488V27.6494C155.469 27.5752 155.384 27.5409 155.327 27.5923C154.485 28.4168 153.107 28.8819 151.515 28.8819C147.107 28.8819 144.103 25.7578 144.103 20.919C144.103 16.0802 146.861 12.9561 151.15 12.9561C153.001 12.9561 154.445 13.5866 155.324 14.5623C155.375 14.6194 155.466 14.5852 155.466 14.511V13.3697C155.466 13.2785 155.54 13.2043 155.632 13.2043H159.8C159.891 13.2043 159.966 13.2785 159.966 13.3697V34.0431C159.966 34.1344 159.891 34.2086 159.8 34.2086H155.632C155.546 34.2143 155.472 34.1401 155.472 34.0488H155.469ZM155.746 20.9275C155.746 18.4454 154.308 16.7934 152.1 16.7934C149.891 16.7934 148.488 18.4454 148.488 20.9275C148.488 23.4097 149.926 25.0616 152.1 25.0616C154.274 25.0616 155.746 23.4097 155.746 20.9275Z" fill="black"/>
<path d="M175.352 28.6421H171.253C171.15 28.6421 171.07 28.5622 171.07 28.4595V26.8647C171.07 26.7791 170.962 26.7391 170.905 26.8076C170.183 27.7206 169.11 28.4253 167.803 28.722C164.129 29.5694 160.659 26.6022 160.659 22.8219V13.3896C160.659 13.2869 160.739 13.207 160.842 13.207H164.976C165.079 13.207 165.158 13.2869 165.158 13.3896V22.0858C165.158 23.7719 166.203 24.9075 167.789 24.9075C169.934 24.9075 171.067 23.1585 171.067 19.9774V13.3896C171.067 13.2869 171.147 13.207 171.25 13.207H175.35C175.452 13.207 175.532 13.2869 175.532 13.3896V28.4567C175.532 28.5594 175.452 28.6393 175.35 28.6393L175.352 28.6421Z" fill="black"/>
<path d="M189.869 19.4869V28.5282C189.869 28.591 189.818 28.6424 189.755 28.6424H185.638C185.575 28.6424 185.524 28.591 185.524 28.5282V26.8421C185.524 26.7907 185.467 26.7736 185.432 26.8136C184.519 28.086 182.83 28.8877 181.173 28.8877C178.168 28.8877 176.06 26.8649 176.06 24.2943C176.06 21.233 178.297 19.5753 182.739 19.116L185.527 18.8421V18.7451C185.527 17.213 184.482 16.2971 182.833 16.2971C181.407 16.2971 180.351 17.1388 180.151 18.5682C180.14 18.631 180.083 18.6766 180.02 18.6652L176.334 17.9719C176.271 17.9605 176.226 17.8977 176.237 17.835C176.782 14.8706 179.566 12.9619 182.83 12.9619C187.027 12.9619 189.877 15.136 189.877 19.4869H189.869ZM185.518 22.2458V22.0061L182.639 22.3457C181.107 22.4997 180.34 23.2643 180.34 24.1516C180.34 25.0389 181.016 25.6837 182.271 25.6837C184.294 25.678 185.487 24.0546 185.515 22.2486L185.518 22.2458Z" fill="black"/>
<path d="M199.178 17.1589C197.155 17.1589 195.227 18.6909 195.227 23.0704V28.5283C195.227 28.5911 195.175 28.6482 195.107 28.6482H190.842C190.779 28.6482 190.722 28.5968 190.722 28.5283V13.3243C190.722 13.2616 190.773 13.2045 190.842 13.2045H195.107C195.17 13.2045 195.227 13.2559 195.227 13.3243V15.641C195.227 15.6981 195.301 15.7152 195.324 15.6638C196.097 14.1146 198 12.9648 199.76 12.9648C200.248 12.9648 200.896 13.0447 201.332 13.1817C201.384 13.1988 201.418 13.2502 201.412 13.3015L201.155 17.3614C201.15 17.4413 201.07 17.4927 200.996 17.4584C200.485 17.2587 199.82 17.1617 199.178 17.1617V17.1589Z" fill="black"/>
<path d="M215.829 22.2118H204.981C204.913 22.2118 204.867 22.2746 204.878 22.343C205.338 24.1604 206.605 25.1533 208.462 25.1533C209.946 25.1533 211.058 24.4885 211.432 23.2731C211.449 23.2104 211.512 23.1761 211.575 23.1932L215.566 24.266C215.635 24.2831 215.674 24.3573 215.652 24.4258C214.693 27.2589 211.965 28.8965 208.342 28.8965C203.01 28.8965 200.408 24.7624 200.408 20.9336C200.408 17.1048 202.736 12.9707 208.068 12.9707C213.401 12.9707 216.003 17.1048 216.003 20.537C216.003 21.0934 215.98 21.7467 215.951 22.1148C215.946 22.1661 215.888 22.2118 215.831 22.2118H215.829ZM211.075 19.0278C211.138 19.0278 211.184 18.9707 211.178 18.9136C210.99 17.4129 210.008 16.3059 208.065 16.3059C206.482 16.3059 205.395 17.1818 204.941 18.9022C204.924 18.965 204.975 19.0335 205.038 19.0335H211.075V19.0278Z" fill="black"/>
<path d="M0 0.333962V35.7748C0 35.9574 0.148359 36.1086 0.333809 36.1086H35.7803C35.9629 36.1086 36.1141 35.9602 36.1141 35.7748V0.333962C36.117 0.148513 35.9658 0.000153582 35.7832 0.000153582H0.336662C0.151213 -0.00555255 0 0.148513 0 0.333962ZM28.4223 28.6421H7.69757C7.57204 28.6421 7.47504 28.5394 7.47504 28.4196V7.68917C7.47504 7.56363 7.57775 7.46663 7.69757 7.46663H28.428C28.5535 7.46663 28.6505 7.56934 28.6505 7.68917V28.4196C28.6505 28.5451 28.5478 28.6421 28.4223 28.6421Z" fill="url(#paint0_linear_1286_25751)"/>
</g>
<defs>
<linearGradient id="paint0_linear_1286_25751" x1="0.0998568" y1="36.0116" x2="36.0171" y2="0.0971575" gradientUnits="userSpaceOnUse">
<stop stop-color="#12AFCE"/>
<stop offset="0.09" stop-color="#15AACA"/>
<stop offset="0.19" stop-color="#209EBE"/>
<stop offset="0.28" stop-color="#3189AB"/>
<stop offset="0.38" stop-color="#4A6C90"/>
<stop offset="0.48" stop-color="#6A476E"/>
<stop offset="0.58" stop-color="#901A44"/>
<stop offset="0.63" stop-color="#A7002C"/>
<stop offset="0.71" stop-color="#AF0429"/>
<stop offset="0.83" stop-color="#C70F21"/>
<stop offset="0.99" stop-color="#EE2214"/>
<stop offset="1" stop-color="#F02314"/>
</linearGradient>
<clipPath id="clip0_1286_25751">
<rect width="216" height="36.1084" fill="white"/>
</clipPath>
</defs>
</svg>
